<?xml version="1.0" encoding="UTF-8" standalone="no"?>
<svg
   xmlns:dc="http://purl.org/dc/elements/1.1/"
   xmlns:cc="http://creativecommons.org/ns#"
   xmlns:rdf="http://www.w3.org/1999/02/22-rdf-syntax-ns#"
   xmlns:svg="http://www.w3.org/2000/svg"
   xmlns="http://www.w3.org/2000/svg"
   viewBox="0 0 816 1056"
   height="1056"
   width="816"
   xml:space="preserve"
   id="svg2"
   version="1.1"><metadata
     id="metadata8"><rdf:RDF><cc:Work
         rdf:about=""><dc:format>image/svg+xml</dc:format><dc:type
           rdf:resource="http://purl.org/dc/dcmitype/StillImage" /></cc:Work></rdf:RDF></metadata><defs
     id="defs6"><clipPath
       id="clipPath20"
       clipPathUnits="userSpaceOnUse"><path
         id="path18"
         d="M 470.91,1370.9 H 5649.09 V 6549.1 H 470.91 Z" /></clipPath></defs><g
     transform="matrix(1.3333333,0,0,-1.3333333,0,1056)"
     id="g10"><g
       transform="scale(0.1)"
       id="g12"><g
         id="g14"><g
           clip-path="url(#clipPath20)"
           id="g16"><path
             id="path22"
             style="fill:#4d8687;fill-opacity:1;fill-rule:evenodd;stroke:none"
             d="m 4430.44,3103.26 c -194.15,0 -350.74,156.59 -350.74,350.76 0,194.26 156.59,353.99 350.74,353.99 338.33,0 642.25,-137.83 861.54,-357.03 222.43,-222.41 357.11,-526.33 357.11,-861.53 0,-338.33 -134.68,-642.12 -357.11,-861.43 -219.29,-222.44 -523.21,-357.13 -861.54,-357.13 -335.2,0 -639,134.69 -861.43,357.13 -219.29,219.31 -357.11,523.1 -357.11,861.43 0,194.26 159.73,350.85 353.99,350.85 194.25,0 350.85,-156.59 350.85,-350.85 0,-144.07 59.56,-272.5 150.33,-363.37 93.99,-93.99 222.42,-150.34 363.37,-150.34 144.19,0 272.6,56.35 363.48,150.34 93.9,90.87 150.34,219.3 150.34,363.37 0,140.94 -56.44,269.48 -150.34,363.37 -90.88,90.87 -219.29,150.44 -363.48,150.44" /><path
             id="path24"
             style="fill:#56b7ba;fill-opacity:1;fill-rule:evenodd;stroke:none"
             d="m 1689.45,3103.26 c 194.25,0 353.98,156.59 353.98,350.76 0,194.26 -159.73,353.99 -353.98,353.99 -335.21,0 -639.11,-137.83 -861.43,-357.03 -219.297,-222.41 -357.11,-526.33 -357.11,-861.53 0,-338.33 137.813,-642.12 357.11,-861.43 222.32,-222.44 526.22,-357.13 861.43,-357.13 335.2,0 642.13,134.69 861.43,357.13 219.29,219.31 357.22,523.1 357.22,861.43 0,194.26 -156.71,350.85 -354.1,350.85 -194.14,0 -350.85,-156.59 -350.85,-350.85 0,-144.07 -56.33,-272.5 -150.33,-363.37 -94,-93.99 -222.42,-150.34 -363.37,-150.34 -140.94,0 -269.38,56.35 -363.36,150.34 -90.88,90.87 -150.35,219.3 -150.35,363.37 0,140.94 59.47,269.48 150.35,363.37 93.98,90.87 222.42,150.44 363.36,150.44" /><path
             id="path26"
             style="fill:#e05123;fill-opacity:1;fill-rule:evenodd;stroke:none"
             d="m 4430.44,4816.74 c -194.15,0 -350.74,-156.59 -350.74,-350.86 0,-197.27 156.59,-353.99 350.74,-353.99 338.33,0 642.25,137.83 861.54,357.13 222.43,219.3 357.11,526.33 357.11,861.53 0,335.2 -134.68,639.02 -357.11,861.43 -219.29,219.3 -523.21,357.13 -861.54,357.13 -335.2,0 -639,-137.83 -861.43,-357.13 -219.29,-222.41 -357.11,-526.23 -357.11,-861.43 0,-194.26 159.73,-353.99 353.99,-353.99 194.25,0 350.85,159.73 350.85,353.99 0,140.96 59.56,269.37 150.33,363.37 93.99,90.77 222.42,150.34 363.37,150.34 144.19,0 272.6,-59.57 363.48,-150.34 93.9,-94 150.34,-222.41 150.34,-363.37 0,-141.06 -56.44,-269.48 -150.34,-363.47 -90.88,-93.9 -219.29,-150.34 -363.48,-150.34" /><path
             id="path28"
             style="fill:#eb8530;fill-opacity:1;fill-rule:evenodd;stroke:none"
             d="m 1689.45,4816.74 c 194.25,0 353.98,-156.59 353.98,-350.86 0,-197.27 -159.73,-353.99 -353.98,-353.99 -335.21,0 -639.11,137.83 -861.43,357.13 -219.297,219.3 -357.11,526.33 -357.11,861.53 0,335.2 137.813,639.02 357.11,861.43 222.32,219.3 526.22,357.13 861.43,357.13 335.2,0 642.13,-137.83 861.43,-357.13 219.29,-222.41 357.22,-526.23 357.22,-861.43 0,-194.26 -156.71,-353.99 -354.1,-353.99 -194.14,0 -350.85,159.73 -350.85,353.99 0,140.96 -56.33,269.37 -150.33,363.37 -94,90.77 -222.42,150.34 -363.37,150.34 -140.94,0 -269.38,-59.57 -363.36,-150.34 -90.88,-94 -150.35,-222.41 -150.35,-363.37 0,-141.06 59.47,-269.48 150.35,-363.47 93.98,-93.9 222.42,-150.34 363.36,-150.34" /><path
             id="path30"
             style="fill:#194b48;fill-opacity:1;fill-rule:nonzero;stroke:none"
             d="m 3666.14,3958.44 c 0,335.2 -272.6,607.71 -604.57,607.71 -335.21,0 -607.82,-272.51 -607.82,-607.71 0,-332.08 272.61,-604.57 607.82,-604.57 331.97,0 604.57,272.49 604.57,604.57" /></g></g></g></g></svg>
